mtllib materials.mtl
v 0.04415986 -0.2014209 0.1035596
v 0.0930064 -0.2014209 0.06569576
v 0.0930064 -0.2064209 0.06569576
v 0.04415986 -0.2064209 0.1035596
v 0.1102683 -0.2014209 0.006351948
v 0.1102683 -0.2064209 0.006351948
v 0.089352 -0.2014209 -0.05180442
v 0.089352 -0.2064209 -0.05180442
v 0.03824687 -0.2014209 -0.08655977
v 0.03824687 -0.2064209 -0.08655977
v -0.02352664 -0.2014209 -0.08463848
v -0.02352664 -0.2064209 -0.08463848
v -0.07237321 -0.2014209 -0.04677463
v -0.07237321 -0.2064209 -0.04677463
v -0.08963504 -0.2014209 0.01256919
v -0.08963504 -0.2064209 0.01256919
v -0.06871876 -0.2014209 0.07072568
v -0.06871876 -0.2064209 0.07072568
v -0.01761366 -0.2014209 0.1054809
v -0.01761366 -0.2064209 0.1054809
v 0.01370095 0.07996154 0.01887047
v 0.01858561 0.07996154 0.01508403
v 0.01858559 -0.203921 0.01508415
v 0.01370093 -0.203921 0.01887047
v 0.02031179 0.07996154 0.009149671
v 0.02031177 -0.203921 0.009149671
v 0.01822017 0.07996154 0.003334045
v 0.01822016 -0.203921 0.003334045
v 0.01310965 0.07996154 -0.0001415014
v 0.01310964 -0.203921 -0.0001415014
v 0.006932303 0.07996154 5.066395E-05
v 0.006932288 -0.203921 5.066395E-05
v 0.002047643 0.07996154 0.003837109
v 0.002047628 -0.203921 0.003837109
v 0.0003214628 0.07996154 0.009771466
v 0.0003214478 -0.203921 0.009771466
v 0.002413094 0.07996154 0.01558709
v 0.002413079 -0.203921 0.01558709
v 0.007523596 0.07996154 0.01906264
v 0.007523581 -0.203921 0.01906264
v 0.002413094 0.07996154 0.01558709
v 0.007523596 0.07996154 0.01906264
v 0.0003214628 0.07996154 0.009771466
v 0.002047643 0.07996154 0.003837109
v 0.006932303 0.07996154 5.066395E-05
v 0.01310965 0.07996154 -0.0001415014
v 0.01822017 0.07996154 0.003334045
v 0.02031179 0.07996154 0.009149671
v 0.01858561 0.07996154 0.01508403
v 0.01370095 0.07996154 0.01887047
v -0.01618481 0.1752024 -0.04694748
v -0.01795034 0.1634501 -0.05758977
v -0.01521327 0.1602932 -0.0545578
v -0.01344773 0.1720455 -0.04391539
v -0.02726106 0.1512353 -0.06190252
v -0.02452399 0.1480784 -0.05887055
v -0.04056059 0.1432235 -0.05823851
v -0.03782351 0.1400666 -0.05520642
v -0.05276895 0.142475 -0.047997
v -0.05003187 0.1393182 -0.04496503
v -0.05922297 0.1492758 -0.03509009
v -0.05648589 0.1461189 -0.03205812
v -0.05745743 0.161028 -0.0244478
v -0.05472036 0.1578711 -0.02141571
v -0.04814672 0.1732428 -0.02013505
v -0.04540963 0.1700859 -0.01710296
v -0.03484719 0.1812545 -0.02379918
v -0.03211011 0.1780977 -0.02076709
v -0.02263883 0.182003 -0.03404057
v -0.01990175 0.1788461 -0.03100848
v 0.07573733 0.07531166 0.05005097
v 0.06823619 0.08321583 0.06505191
v -0.01745752 0.1820527 -0.02987635
v -0.00995633 0.1741487 -0.04487741
v 0.05404712 0.08234596 0.07695496
v -0.03164658 0.1811829 -0.0179733
v 0.03858984 0.07303441 0.08121359
v -0.04710388 0.1718713 -0.01371479
v 0.02776845 0.05883777 0.07620108
v -0.05792528 0.1576747 -0.01872718
v 0.02571647 0.04517889 0.06383216
v -0.05997726 0.1440157 -0.0310961
v 0.03321759 0.03727484 0.04883122
v -0.05247609 0.1361116 -0.04609716
v 0.04740667 0.03814459 0.03692806
v -0.03828701 0.1369815 -0.05800021
v 0.06286395 0.04745615 0.03266943
v -0.02282967 0.1462932 -0.06225884
v 0.07368535 0.06165278 0.03768194
v -0.01200831 0.1604897 -0.05724633
v -0.008082405 0.1658312 -0.008604884
v -0.01051793 0.1657388 -0.006705165
v -0.01223545 0.1617017 -0.009103298
v -0.009799927 0.1617939 -0.0110029
v -0.01156068 0.1645941 -0.004030943
v -0.0132782 0.1605568 -0.006429076
v -0.01081237 0.1628339 -0.001603842
v -0.01252989 0.1587967 -0.004001856
v -0.00855881 0.1611309 -0.0003507137
v -0.01027635 0.1570936 -0.002748728
v -0.005660817 0.1601354 -0.0007503033
v -0.00737834 0.1560981 -0.003148437
v -0.003225297 0.1602277 -0.002650023
v -0.004942819 0.1561904 -0.005048037
v -0.002182543 0.1613725 -0.005324125
v -0.003900066 0.1573353 -0.007722259
v -0.00293085 0.1631325 -0.007751346
v -0.004648373 0.1590954 -0.01014948
v -0.005184397 0.1648357 -0.009004474
v -0.00690192 0.1607984 -0.01140261
vn 0.6126506 3.772598E-08 0.790354
vn 0.9602031 1.518826E-07 0.2793029
vn 0.9409907 -2.631361E-07 -0.3384326
vn 0.5623518 9.335137E-08 -0.8268982
vn -0.03108631 -5.796122E-08 -0.9995167
vn -0.6126506 -2.760299E-08 -0.7903539
vn -0.9602031 2.191405E-07 -0.2793028
vn -0.9409906 7.116254E-07 0.3384327
vn -0.5623518 -9.394678E-08 0.8268982
vn 0.03108636 8.024117E-10 0.9995167
vn -4.03933E-10 1 -1.123111E-09
vn 0 -1 0
vn 0.6126531 2.068313E-07 0.790352
vn 0.9602031 4.756717E-08 0.279303
vn 0.9409909 -1.553111E-07 -0.338432
vn 0.5623528 -2.891585E-07 -0.8268974
vn -0.03108959 -2.603897E-07 -0.9995166
vn -0.6126531 -3.785199E-08 -0.790352
vn -0.9602031 5.308706E-08 -0.2793029
vn -0.9409904 1.077928E-07 0.3384332
vn -0.5623534 1.19761E-07 0.826897
vn 0.03108954 1.297267E-07 0.9995166
vn 1.722702E-07 1 -3.88636E-08
vn -1.649548E-07 -1 5.920363E-08
vn -0.3379363 -0.054125 -0.9396114
vn -3.765372E-05 1 -0.0001052117
vn 0.338377 -0.01810244 0.9408365
vn -0.3384208 0.008300262 -0.9409583
vn 0.3384271 0.005587141 0.940976
vn 0.3375115 0.07372302 0.9384301
vn 1.649548E-07 1 -5.920363E-08
vn -0.3384321 -0.001303326 -0.9409899
vn 0.3375281 0.0730553 0.9384763
vn -0.3383292 0.02469408 -0.9407037
vn 1.722702E-07 1 -3.88636E-08
vn 0.8406237 0.2886979 -0.4582632
vn 0.6150273 -0.1994528 -0.762863
vn 0.1545111 -0.6114194 -0.7760751
vn -0.3650231 -0.7898445 -0.4928527
vn -0.7451306 -0.6665759 -0.02137757
vn -0.8406237 -0.2886978 0.4582634
vn -0.6150272 0.1994527 0.7628631
vn -0.154511 0.6114197 0.7760749
vn 0.365023 0.7898445 0.4928529
vn 0.7451306 0.6665758 0.02137749
vn -0.5301918 0.6115097 -0.5873267
vn 0.5301918 -0.6115097 0.5873266
vn 0.745131 0.6665756 0.02137686
vn 0.3650258 0.789845 0.49285
vn -0.1545098 0.6114208 0.7760743
vn -0.6150247 0.1994566 0.7628642
vn -0.8406236 -0.2886977 0.4582638
vn -0.7451305 -0.666576 -0.02137671
vn -0.3650258 -0.789845 -0.4928499
vn 0.1545084 -0.6114213 -0.7760742
vn 0.6150261 -0.1994547 -0.7628636
vn 0.8406238 0.2886974 -0.4582637
vn 0.5301912 -0.6115097 0.5873272
vn -0.5301908 0.6115096 -0.5873277
vn -0.5107067 0.5891836 -0.6261321
vn -0.8764343 0.4591058 -0.1452068
vn -0.9073937 0.153665 0.3911826
vn -0.5917595 -0.2104706 0.7781536
vn -0.05009336 -0.4942134 0.8678962
vn 0.5107068 -0.5891836 0.626132
vn 0.8764343 -0.4591057 0.1452066
vn 0.9073936 -0.1536649 -0.3911828
vn 0.5917595 0.2104706 -0.7781535
vn 0.05009347 0.4942134 -0.8678963
vn 0.3435054 0.807447 0.479618
vn -0.3435054 -0.807447 -0.479618
vt -0.1692731 0.005218502
vt -0.1720169 0.01075638
vt -0.1724649 0.0105344
vt -0.1697211 0.004996523
vt -0.2049504 0.01660614
vt -0.2088217 0.0214238
vt -0.2092115 0.02111061
vt -0.2053402 0.01629295
vt -0.1469502 -0.1500565
vt -0.1531305 -0.1500857
vt -0.1531281 -0.1505857
vt -0.1469478 -0.1505565
vt 0.05654086 -0.1685438
vt 0.05268401 -0.173373
vt 0.0530747 -0.173685
vt 0.05693155 -0.1688558
vt 0.1306962 -0.07265103
vt 0.1279556 -0.07819048
vt 0.1284037 -0.0784122
vt 0.1311443 -0.07287274
vt 0.1720169 0.01075639
vt 0.1692731 0.005218511
vt 0.1697211 0.004996532
vt 0.1724649 0.01053441
vt 0.2088217 0.02142373
vt 0.2049505 0.01660607
vt 0.2053402 0.01629288
vt 0.2092115 0.02111054
vt 0.1531304 -0.1500857
vt 0.1469502 -0.1500565
vt 0.1469478 -0.1505565
vt 0.1531281 -0.1505857
vt -0.05268402 -0.173373
vt -0.05654087 -0.1685437
vt -0.05693156 -0.1688558
vt -0.05307471 -0.173685
vt -0.1279556 -0.07819048
vt -0.1306962 -0.07265102
vt -0.1311443 -0.07287274
vt -0.1284037 -0.0784122
vt 0.1427298 0.03200673
vt 0.1477217 0.02836289
vt 0.153902 0.02834913
vt 0.1589101 0.0319707
vt 0.160833 0.03784429
vt 0.1589363 0.04372638
vt 0.1539444 0.04737021
vt 0.147764 0.04738397
vt 0.142756 0.0437624
vt 0.1408331 0.03788882
vt -0.1408331 0.03788882
vt -0.142756 0.0437624
vt -0.147764 0.04738397
vt -0.1539444 0.04737021
vt -0.1589363 0.04372638
vt -0.160833 0.03784429
vt -0.1589101 0.0319707
vt -0.153902 0.02834913
vt -0.1477217 0.02836289
vt -0.1427298 0.03200673
vt -0.1452948 0.02020309
vt -0.1455691 0.02075688
vt -0.1710064 0.008153671
vt -0.170732 0.007599887
vt -0.1847583 0.03639946
vt -0.1851455 0.03688122
vt -0.2072745 0.01909926
vt -0.2068874 0.01861748
vt -0.1498646 -0.1219315
vt -0.1504826 -0.1219345
vt -0.1503484 -0.1503224
vt -0.1497304 -0.1503195
vt 0.0328182 -0.1531573
vt 0.03243251 -0.1536403
vt 0.05461461 -0.171356
vt 0.0550003 -0.1708731
vt 0.1042427 -0.06266557
vt 0.1039687 -0.06321952
vt 0.1294132 -0.07580807
vt 0.1296872 -0.07525413
vt 0.1455692 0.02075687
vt 0.1452948 0.02020308
vt 0.170732 0.007599869
vt 0.1710064 0.00815366
vt 0.1851455 0.03688119
vt 0.1847584 0.03639943
vt 0.2068874 0.01861746
vt 0.2072745 0.01909922
vt 0.1504822 -0.1219349
vt 0.1498642 -0.1219319
vt 0.1497299 -0.1503199
vt 0.1503479 -0.1503228
vt -0.03243243 -0.1536403
vt -0.03281812 -0.1531574
vt -0.05500022 -0.1708732
vt -0.05461453 -0.1713561
vt -0.1039687 -0.06321954
vt -0.1042428 -0.0626656
vt -0.1296872 -0.07525414
vt -0.1294132 -0.07580809
vt 0.1500227 0.03728059
vt 0.1505219 0.03691621
vt 0.1511399 0.03691483
vt 0.1516407 0.03727699
vt 0.151833 0.03786435
vt 0.1516434 0.03845256
vt 0.1511442 0.03881694
vt 0.1505261 0.03881832
vt 0.1500253 0.03845616
vt 0.149833 0.0378688
vt -0.149833 0.03786881
vt -0.1500253 0.03845616
vt -0.1505261 0.03881832
vt -0.1511442 0.03881694
vt -0.1516434 0.03845256
vt -0.151833 0.03786435
vt -0.1516407 0.03727699
vt -0.1511399 0.03691483
vt -0.1505219 0.03691621
vt -0.1500227 0.03728059
vt 0.118202 -0.01399932
vt 0.118023 -0.01431657
vt 0.118023 -0.01431657
vt 0.118202 -0.01399932
vt 0.1505374 0.03690826
vt 0.1511554 0.03690685
vt 0.1511554 0.03690685
vt 0.1505374 0.03690826
vt -0.1279975 -0.01909198
vt -0.1281604 -0.01876718
vt -0.1281604 -0.01876718
vt -0.1279975 -0.01909198
vt 0.12683 -0.01814509
vt 0.1270818 -0.01761398
vt 0.1270818 -0.01761398
vt 0.12683 -0.01814509
vt -0.1251776 -0.01671492
vt -0.125429 -0.01618359
vt -0.125429 -0.01618359
vt -0.1251776 -0.01671492
vt -0.1158031 -0.01150966
vt -0.1159908 -0.01119648
vt -0.1159908 -0.01119648
vt -0.1158031 -0.01150966
vt 0.1511442 0.03881694
vt 0.1505261 0.03881832
vt 0.1505261 0.03881832
vt 0.1511442 0.03881694
vt 0.1261738 -0.01613459
vt 0.1260197 -0.01646352
vt 0.1260197 -0.01646352
vt 0.1261738 -0.01613459
vt -0.1160069 -0.01160776
vt -0.1157697 -0.01214576
vt -0.1157697 -0.01214576
vt -0.1160069 -0.01160776
vt 0.1292596 -0.01862916
vt 0.1290135 -0.01916296
vt 0.1290135 -0.01916296
vt 0.1292596 -0.01862916
vt 0.1500227 0.03728059
vt 0.1505219 0.03691621
vt 0.1511399 0.03691483
vt 0.1516407 0.03727699
vt 0.151833 0.03786435
vt 0.1516434 0.03845256
vt 0.1511442 0.03881694
vt 0.1505261 0.03881832
vt 0.1500253 0.03845616
vt 0.149833 0.0378688
vt -0.0236074 -0.1930619
vt -0.02351032 -0.1946542
vt -0.02299504 -0.1946228
vt -0.02309211 -0.1930305
vt -0.03293569 -0.1411036
vt -0.03290878 -0.1426986
vt -0.03239261 -0.1426899
vt -0.03241953 -0.1410949
vt -0.03485817 -0.03624781
vt -0.0348381 -0.03784296
vt -0.0343219 -0.03783647
vt -0.03434197 -0.03624132
vt -0.0365027 0.08237876
vt -0.03647969 0.08078364
vt -0.03596351 0.08079109
vt -0.0359865 0.0823862
vt -0.04049398 0.1690825
vt -0.04044526 0.167488
vt -0.03992926 0.1675037
vt -0.03997799 0.1690983
vt 0.02351033 -0.1946542
vt 0.02360741 -0.1930619
vt 0.02309212 -0.1930305
vt 0.02299505 -0.1946228
vt 0.03290875 -0.1426986
vt 0.03293566 -0.1411036
vt 0.03241949 -0.1410948
vt 0.03239258 -0.1426899
vt 0.03483814 -0.03784291
vt 0.0348582 -0.03624776
vt 0.034342 -0.03624126
vt 0.03432193 -0.03783642
vt 0.03647967 0.08078361
vt 0.03650267 0.08237872
vt 0.03598648 0.08238616
vt 0.03596349 0.08079105
vt 0.04044526 0.167488
vt 0.04049399 0.1690825
vt 0.03997798 0.1690983
vt 0.03992926 0.1675037
vt 0.1911544 -0.01407922
vt 0.1903607 -0.01546301
vt 0.1905319 -0.01704907
vt 0.1916027 -0.01823157
vt 0.193164 -0.01855885
vt 0.1946196 -0.01790588
vt 0.1954133 -0.01652207
vt 0.195242 -0.01493601
vt 0.1941712 -0.01375351
vt 0.1926099 -0.01342624
vt -0.1926099 -0.01342624
vt -0.1941712 -0.01375351
vt -0.195242 -0.01493601
vt -0.1954133 -0.01652208
vt -0.1946196 -0.01790587
vt -0.193164 -0.01855884
vt -0.1916027 -0.01823158
vt -0.1905319 -0.01704908
vt -0.1903606 -0.01546301
vt -0.1911544 -0.01407922
vt 0.02382671 0.1697213
vt 0.02377009 0.1678681
vt 0.03992533 0.1673745
vt 0.03998195 0.1692277
vt 0.01982738 0.08274926
vt 0.01980066 0.08089535
vt 0.03596175 0.08066234
vt 0.03598848 0.08251625
vt 0.01818223 -0.03590824
vt 0.01815891 -0.03776219
vt 0.03432041 -0.03796549
vt 0.03434372 -0.03611154
vt 0.01626132 -0.1406921
vt 0.01623005 -0.142546
vt 0.03239052 -0.1428187
vt 0.0324218 -0.1409648
vt 0.006966927 -0.1919178
vt 0.006854103 -0.1937685
vt 0.02298691 -0.194752
vt 0.02309975 -0.1929013
vt -0.02377037 0.167868
vt -0.023827 0.1697212
vt -0.03998223 0.1692276
vt -0.0399256 0.1673744
vt -0.01980067 0.08089537
vt -0.0198274 0.08274929
vt -0.03598849 0.08251628
vt -0.03596176 0.08066237
vt -0.01815883 -0.03776191
vt -0.01818215 -0.03590796
vt -0.03434364 -0.03611124
vt -0.03432032 -0.0379652
vt -0.01623002 -0.1425463
vt -0.0162613 -0.1406925
vt -0.03242176 -0.1409651
vt -0.03239049 -0.142819
vt -0.006854472 -0.1937685
vt -0.006967285 -0.1919178
vt -0.02310012 -0.1929013
vt -0.02298729 -0.194752
vt -0.1943796 -0.01339025
vt -0.1956241 -0.01476461
vt -0.1958232 -0.016608
vt -0.1949006 -0.01821631
vt -0.193209 -0.01897522
vt -0.1913943 -0.01859486
vt -0.1901498 -0.01722049
vt -0.1899508 -0.0153771
vt -0.1908733 -0.01376879
vt -0.1925649 -0.01300989
vt 0.1925649 -0.01300991
vt 0.1908732 -0.01376883
vt 0.1899507 -0.01537714
vt 0.1901498 -0.01722052
vt 0.1913943 -0.01859489
vt 0.1932089 -0.01897526
vt 0.1949006 -0.01821634
vt 0.1958231 -0.01660803
vt 0.1956241 -0.01476463
vt 0.1943796 -0.01339028
vt 0.1887904 -0.01500046
vt 0.1886387 -0.01526972
vt 0.1890744 -0.01551507
vt 0.189226 -0.01524582
vt 0.1912879 -0.02563288
vt 0.191112 -0.02588693
vt 0.1915231 -0.02617158
vt 0.191699 -0.02591752
vt 0.1386779 -0.1192514
vt 0.1384084 -0.1194026
vt 0.138653 -0.1198387
vt 0.1389225 -0.1196875
vt -0.06932191 -0.1578353
vt -0.06959423 -0.1576892
vt -0.06983054 -0.1581299
vt -0.06955822 -0.1582759
vt -0.1641237 -0.06521577
vt -0.1643009 -0.0649626
vt -0.1647105 -0.06524929
vt -0.1645333 -0.06550246
vt -0.1886388 -0.01526971
vt -0.1887904 -0.01500046
vt -0.1892261 -0.01524582
vt -0.1890744 -0.01551507
vt -0.191112 -0.02588695
vt -0.1912879 -0.0256329
vt -0.191699 -0.02591754
vt -0.1915231 -0.0261716
vt -0.1384083 -0.1194027
vt -0.1386778 -0.1192515
vt -0.1389225 -0.1196875
vt -0.138653 -0.1198387
vt 0.06959423 -0.1576892
vt 0.0693219 -0.1578353
vt 0.06955821 -0.1582759
vt 0.06983054 -0.1581299
vt 0.1643009 -0.06496261
vt 0.1641237 -0.06521578
vt 0.1645333 -0.06550248
vt 0.1647105 -0.06524931
vt 0.03954999 0.08011454
vt 0.0392554 0.08020787
vt 0.03896222 0.08011022
vt 0.03878243 0.0798589
vt 0.03878469 0.07954989
vt 0.03896816 0.07930123
vt 0.03926274 0.0792079
vt 0.03955592 0.07930554
vt 0.03973572 0.07955687
vt 0.03973346 0.07986588
vt -0.03973345 0.07986588
vt -0.03973573 0.07955687
vt -0.03955593 0.07930554
vt -0.03926273 0.0792079
vt -0.03896815 0.07930123
vt -0.03878469 0.0795499
vt -0.03878242 0.07985891
vt -0.03896222 0.08011024
vt -0.03925541 0.08020788
vt -0.03954999 0.08011455
o group2051777173
g mesh2051777173
usemtl mat23
f 4/4/1 3/3/1 2/2/1 1/1/1
f 3/8/2 6/7/2 5/6/2 2/5/2
f 6/12/3 8/11/3 7/10/3 5/9/3
f 8/16/4 10/15/4 9/14/4 7/13/4
f 10/20/5 12/19/5 11/18/5 9/17/5
f 12/24/6 14/23/6 13/22/6 11/21/6
f 14/28/7 16/27/7 15/26/7 13/25/7
f 16/32/8 18/31/8 17/30/8 15/29/8
f 18/36/9 20/35/9 19/34/9 17/33/9
f 20/40/10 4/39/10 1/38/10 19/37/10
f 1/50/11 2/49/11 5/48/11 7/47/11 9/46/11 11/45/11 13/44/11 15/43/11 17/42/11 19/41/11
f 20/60/12 18/59/12 16/58/12 14/57/12 12/56/12 10/55/12 8/54/12 6/53/12 3/52/12 4/51/12
o group1974278541
g mesh1974278541
usemtl mat23
f 24/64/13 23/63/13 22/62/13 21/61/13
f 23/68/14 26/67/14 25/66/14 22/65/14
f 26/72/15 28/71/15 27/70/15 25/69/15
f 28/76/16 30/75/16 29/74/16 27/73/16
f 30/80/17 32/79/17 31/78/17 29/77/17
f 32/84/18 34/83/18 33/82/18 31/81/18
f 34/88/19 36/87/19 35/86/19 33/85/19
f 36/92/20 38/91/20 37/90/20 35/89/20
f 38/96/21 40/95/21 39/94/21 37/93/21
f 40/100/22 24/99/22 21/98/22 39/97/22
f 21/110/23 22/109/23 25/108/23 27/107/23 29/106/23 31/105/23 33/104/23 35/103/23 37/102/23 39/101/23
f 40/120/24 38/119/24 36/118/24 34/117/24 32/116/24 30/115/24 28/114/24 26/113/24 23/112/24 24/111/24
f 42/124/25 41/123/25 37/122/25 39/121/25
f 41/128/26 43/127/26 35/126/26 37/125/26
f 43/132/27 44/131/27 33/130/27 35/129/27
f 44/136/28 45/135/28 31/134/28 33/133/28
f 45/140/29 46/139/29 29/138/29 31/137/29
f 46/144/30 47/143/30 27/142/30 29/141/30
f 47/148/31 48/147/31 25/146/31 27/145/31
f 48/152/32 49/151/32 22/150/32 25/149/32
f 49/156/33 50/155/33 21/154/33 22/153/33
f 50/160/34 42/159/34 39/158/34 21/157/34
f 50/170/35 49/169/35 48/168/35 47/167/35 46/166/35 45/165/35 44/164/35 43/163/35 41/162/35 42/161/35
o group1779491375
g mesh1779491375
usemtl mat25
f 54/174/36 53/173/36 52/172/36 51/171/36
f 53/178/37 56/177/37 55/176/37 52/175/37
f 56/182/38 58/181/38 57/180/38 55/179/38
f 58/186/39 60/185/39 59/184/39 57/183/39
f 60/190/40 62/189/40 61/188/40 59/187/40
f 62/194/41 64/193/41 63/192/41 61/191/41
f 64/198/42 66/197/42 65/196/42 63/195/42
f 66/202/43 68/201/43 67/200/43 65/199/43
f 68/206/44 70/205/44 69/204/44 67/203/44
f 70/210/45 54/209/45 51/208/45 69/207/45
f 51/220/46 52/219/46 55/218/46 57/217/46 59/216/46 61/215/46 63/214/46 65/213/46 67/212/46 69/211/46
f 70/230/47 68/229/47 66/228/47 64/227/47 62/226/47 60/225/47 58/224/47 56/223/47 53/222/47 54/221/47
o group1648973198
g mesh1648973198
usemtl mat23
f 74/234/48 73/233/48 72/232/48 71/231/48
f 73/238/49 76/237/49 75/236/49 72/235/49
f 76/242/50 78/241/50 77/240/50 75/239/50
f 78/246/51 80/245/51 79/244/51 77/243/51
f 80/250/52 82/249/52 81/248/52 79/247/52
f 82/254/53 84/253/53 83/252/53 81/251/53
f 84/258/54 86/257/54 85/256/54 83/255/54
f 86/262/55 88/261/55 87/260/55 85/259/55
f 88/266/56 90/265/56 89/264/56 87/263/56
f 90/270/57 74/269/57 71/268/57 89/267/57
f 71/280/58 72/279/58 75/278/58 77/277/58 79/276/58 81/275/58 83/274/58 85/273/58 87/272/58 89/271/58
f 90/290/59 88/289/59 86/288/59 84/287/59 82/286/59 80/285/59 78/284/59 76/283/59 73/282/59 74/281/59
o group376783149
g mesh376783149
usemtl mat25
f 94/294/60 93/293/60 92/292/60 91/291/60
f 93/298/61 96/297/61 95/296/61 92/295/61
f 96/302/62 98/301/62 97/300/62 95/299/62
f 98/306/63 100/305/63 99/304/63 97/303/63
f 100/310/64 102/309/64 101/308/64 99/307/64
f 102/314/65 104/313/65 103/312/65 101/311/65
f 104/318/66 106/317/66 105/316/66 103/315/66
f 106/322/67 108/321/67 107/320/67 105/319/67
f 108/326/68 110/325/68 109/324/68 107/323/68
f 110/330/69 94/329/69 91/328/69 109/327/69
f 91/340/70 92/339/70 95/338/70 97/337/70 99/336/70 101/335/70 103/334/70 105/333/70 107/332/70 109/331/70
f 110/350/71 108/349/71 106/348/71 104/347/71 102/346/71 100/345/71 98/344/71 96/343/71 93/342/71 94/341/71
