mtllib materials.mtl
v 0.0008333046 -0.6800001 0.1458333
v 0.07583331 -0.6800001 0.1257371
v 0.07583331 -0.74 0.1257371
v 0.0008333046 -0.74 0.1458333
v 0.1307371 -0.6800001 0.07083327
v 0.1307371 -0.74 0.07083327
v 0.1508333 -0.6800001 -0.004166722
v 0.1508333 -0.74 -0.004166722
v 0.1307371 -0.6800001 -0.07916671
v 0.1307371 -0.74 -0.07916671
v 0.07583336 -0.6800001 -0.1340705
v 0.07583336 -0.74 -0.1340705
v 0.0008333437 -0.6800001 -0.1541667
v 0.0008333437 -0.74 -0.1541667
v -0.07416667 -0.6800001 -0.1340705
v -0.07416667 -0.74 -0.1340705
v -0.1290705 -0.6800001 -0.07916671
v -0.1290705 -0.74 -0.07916671
v -0.1491667 -0.6800001 -0.004166722
v -0.1491667 -0.74 -0.004166722
v -0.1290705 -0.6800001 0.07083321
v -0.1290705 -0.74 0.07083321
v -0.07416665 -0.6800001 0.1257371
v -0.07416665 -0.74 0.1257371
v -0.004166668 0.24 0.04583329
v 0.01833333 0.24 0.0398044
v 0.01833333 -0.6900001 0.0398044
v -0.004166668 -0.6900001 0.04583329
v 0.03480448 0.24 0.02333325
v 0.03480448 -0.6900001 0.02333325
v 0.04083333 0.24 0.0008332729
v 0.04083333 -0.6900001 0.0008332729
v 0.03480447 0.24 -0.02166671
v 0.03480447 -0.6900001 -0.02166671
v 0.01833333 0.24 -0.03813785
v 0.01833333 -0.6900001 -0.03813785
v -0.004166672 0.24 -0.04416674
v -0.004166672 -0.6900001 -0.04416674
v -0.02666667 0.24 -0.03813785
v -0.02666667 -0.6900001 -0.03813785
v -0.04313781 0.24 -0.02166671
v -0.04313781 -0.6900001 -0.02166671
v -0.04916666 0.24 0.0008332729
v -0.04916666 -0.6900001 0.0008332729
v -0.04313781 0.24 0.02333325
v -0.04313781 -0.6900001 0.02333325
v -0.02666666 0.24 0.0398044
v -0.02666666 -0.6900001 0.0398044
v 0.03083333 0.1499999 0.01583326
v 0.03083333 0.1499999 -0.01416671
v 0.03083333 0.24 -0.01416671
v 0.03083333 0.24 0.01583326
v 0.06083333 0.1499999 0.01583326
v 0.06083333 0.24 0.01583326
v 0.06083333 0.24 -0.01416671
v 0.06083333 0.1499999 -0.01416671
v -0.01916667 0.1499999 0.04583329
v -0.01916667 0.1499999 0.01583332
v -0.01916667 0.24 0.01583332
v -0.01916667 0.24 0.04583329
v 0.01083333 0.1499999 0.04583329
v 0.01083333 0.24 0.04583329
v 0.01083334 0.24 0.01583332
v 0.01083334 0.1499999 0.01583332
v -0.01916667 0.1499999 -0.01416677
v -0.01916667 0.1499999 -0.04416674
v -0.01916667 0.24 -0.04416674
v -0.01916667 0.24 -0.01416677
v 0.01083333 0.1499999 -0.01416677
v 0.01083333 0.24 -0.01416677
v 0.01083333 0.24 -0.04416674
v 0.01083333 0.1499999 -0.04416674
v -0.04916666 0.1499999 0.01583326
v -0.04916666 0.1499999 -0.01416671
v -0.04916666 0.24 -0.01416671
v -0.04916666 0.24 0.01583326
v -0.01916667 0.1499999 0.01583326
v -0.01916667 0.24 0.01583326
v -0.01916667 0.24 -0.01416671
v -0.01916667 0.1499999 -0.01416671
vn 0.2588189 2.377453E-07 0.9659259
vn 0.7071066 1.54964E-07 0.7071069
vn 0.9659258 1.351814E-07 0.2588192
vn 0.9659259 -1.410436E-07 -0.258819
vn 0.7071069 -1.844963E-07 -0.7071067
vn 0.2588192 -1.864678E-09 -0.9659258
vn -0.258819 1.254007E-07 -0.9659259
vn -0.7071069 1.067551E-07 -0.7071068
vn -0.9659258 1.75787E-07 -0.2588192
vn -0.9659259 9.679033E-08 0.258819
vn -0.7071069 3.262698E-07 0.7071067
vn -0.2588192 2.448574E-07 0.9659258
vn -1.163926E-15 1 6.65688E-09
vn -2.219416E-15 -1 1.269358E-08
vn 0.2588198 -1.867855E-09 0.9659256
vn 0.7071068 1.191243E-08 0.7071068
vn 0.9659259 -1.454311E-10 0.258819
vn 0.9659258 2.866338E-09 -0.2588192
vn 0.7071069 1.324059E-08 -0.7071068
vn 0.2588196 -2.129217E-09 -0.9659257
vn -0.2588198 -3.387102E-09 -0.9659256
vn -0.7071069 1.059747E-08 -0.7071067
vn -0.9659258 2.197009E-09 -0.258819
vn -0.9659258 1.832694E-09 0.258819
vn -0.7071067 1.277265E-08 0.7071069
vn -0.2588196 1.816552E-09 0.9659257
vn 0 1 -3.085705E-07
vn 0 -1 0
vn -1 4.587626E-09 -8.742278E-08
vn 1 -4.587626E-09 8.742278E-08
vn -1.461604E-14 -1 1.67188E-07
vn 1.461604E-14 1 -1.67188E-07
vn -8.487027E-08 1.748456E-07 1
vn 8.487027E-08 -1.748456E-07 -1
vn -1 4.587626E-09 -8.742278E-08
vn 1 -4.587626E-09 8.742278E-08
vn -1.461604E-14 -1 1.67188E-07
vn 1.461604E-14 1 -1.67188E-07
vn -8.487027E-08 1.748456E-07 1
vn 8.487027E-08 -1.748456E-07 -1
vn -1 4.587626E-09 -8.742278E-08
vn 1 -4.587626E-09 8.742278E-08
vn -1.461604E-14 -1 1.67188E-07
vn 1.461604E-14 1 -1.67188E-07
vn -8.487027E-08 1.748456E-07 1
vn 8.487027E-08 -1.748456E-07 -1
vn -1 4.587626E-09 -8.742278E-08
vn 1 -4.587626E-09 8.742278E-08
vn -1.461604E-14 -1 1.67188E-07
vn 1.461604E-14 1 -1.67188E-07
vn -8.487027E-08 1.748456E-07 1
vn 8.487027E-08 -1.748456E-07 -1
vt 0.1566103 0.04072624
vt 0.1532936 0.04774678
vt 0.1478686 0.04518384
vt 0.1511853 0.03816329
vt 0.1731881 0.01170626
vt 0.1696004 0.01859223
vt 0.1642793 0.01581982
vt 0.1678671 0.008933855
vt 0.1808794 0.03086624
vt 0.1759272 0.03684652
vt 0.171306 0.03301971
vt 0.1762582 0.02703944
vt 0.1157308 0.1414017
vt 0.108079 0.1427201
vt 0.1070602 0.1368073
vt 0.114712 0.1354888
vt -0.0585665 0.1616422
vt -0.06431168 0.156419
vt -0.06027554 0.1519795
vt -0.05453035 0.1572026
vt -0.1259308 0.1000592
vt -0.1297882 0.09332058
vt -0.1245809 0.09033987
vt -0.1207236 0.09707854
vt -0.1532937 0.0477468
vt -0.1566104 0.04072625
vt -0.1511853 0.0381633
vt -0.1478686 0.04518384
vt -0.1696004 0.01859225
vt -0.1731882 0.01170628
vt -0.1678671 0.008933873
vt -0.1642793 0.01581984
vt -0.1759272 0.03684657
vt -0.1808794 0.0308663
vt -0.1762582 0.02703949
vt -0.171306 0.03301976
vt -0.108079 0.1427201
vt -0.1157308 0.1414016
vt -0.114712 0.1354888
vt -0.1070602 0.1368072
vt 0.06431165 0.156419
vt 0.05856646 0.1616422
vt 0.05453032 0.1572027
vt 0.06027551 0.1519795
vt 0.1297881 0.09332059
vt 0.1259308 0.1000592
vt 0.1207236 0.09707854
vt 0.1245809 0.09033988
vt -0.09345882 -0.0445277
vt -0.08644168 -0.04785161
vt -0.07870272 -0.04722163
vt -0.07231556 -0.04280656
vt -0.06899165 -0.03578943
vt -0.06962164 -0.02805046
vt -0.0740367 -0.0216633
vt -0.08105384 -0.01833939
vt -0.08879281 -0.01896937
vt -0.09517996 -0.02338444
vt -0.09850387 -0.03040158
vt -0.09787389 -0.03814055
vt 0.09787389 -0.03814055
vt 0.09850387 -0.03040158
vt 0.09517997 -0.02338444
vt 0.08879282 -0.01896937
vt 0.08105384 -0.01833939
vt 0.0740367 -0.0216633
vt 0.06962164 -0.02805046
vt 0.06899165 -0.03578943
vt 0.07231556 -0.04280657
vt 0.07870272 -0.04722163
vt 0.08644168 -0.04785161
vt 0.09345882 -0.0445277
vt 0.2388954 0.08192828
vt 0.2379004 0.08403445
vt 0.1538119 0.04430868
vt 0.1548069 0.04220251
vt 0.2538488 0.05599961
vt 0.2527725 0.0580654
vt 0.170296 0.01509299
vt 0.1713723 0.0130272
vt 0.2503951 0.09116555
vt 0.2489095 0.09295963
vt 0.1772808 0.03364403
vt 0.1787665 0.03184995
vt 0.1290232 0.2324671
vt 0.1267277 0.2328626
vt 0.1109357 0.1412132
vt 0.1132312 0.1408176
vt -0.122465 0.227887
vt -0.1241885 0.2263201
vt -0.06162823 0.1575072
vt -0.05990468 0.1590742
vt -0.2073009 0.1430981
vt -0.2084581 0.1410765
vt -0.1277459 0.09487553
vt -0.1265887 0.09689713
vt -0.2379004 0.08403445
vt -0.2388954 0.08192828
vt -0.1548069 0.04220251
vt -0.1538119 0.04430868
vt -0.2527725 0.05806539
vt -0.2538489 0.0559996
vt -0.1713723 0.01302719
vt -0.170296 0.01509298
vt -0.2489095 0.09295961
vt -0.2503951 0.09116553
vt -0.1787665 0.03184993
vt -0.1772808 0.03364401
vt -0.1267277 0.2328626
vt -0.1290233 0.232467
vt -0.1132313 0.1408176
vt -0.1109357 0.1412131
vt 0.1241886 0.22632
vt 0.1224651 0.227887
vt 0.05990473 0.1590741
vt 0.06162829 0.1575072
vt 0.2084581 0.1410765
vt 0.2073009 0.1430981
vt 0.1265886 0.09689714
vt 0.1277458 0.09487554
vt -0.08696385 -0.03716421
vt -0.08485872 -0.03816139
vt -0.08253703 -0.03797239
vt -0.08062088 -0.03664788
vt -0.07962371 -0.03454274
vt -0.0798127 -0.03222104
vt -0.08113723 -0.0303049
vt -0.08324236 -0.02930772
vt -0.08556405 -0.02949672
vt -0.0874802 -0.03082123
vt -0.08847737 -0.03292638
vt -0.08828838 -0.03524807
vt 0.08828831 -0.03524806
vt 0.0884773 -0.03292636
vt 0.08748012 -0.03082122
vt 0.08556398 -0.0294967
vt 0.08324229 -0.02930771
vt 0.08113715 -0.03030488
vt 0.07981263 -0.03222103
vt 0.07962363 -0.03454272
vt 0.08062081 -0.03664786
vt 0.08253695 -0.03797238
vt 0.08485864 -0.03816137
vt 0.08696379 -0.0371642
vt -0.2155231 0.1434496
vt -0.2130819 0.1451933
vt -0.2183131 0.1525169
vt -0.2207543 0.1507732
vt 0.2155231 0.1434496
vt 0.2207543 0.1507732
vt 0.2183131 0.1525169
vt 0.2130819 0.1451933
vt 0.08664029 -0.03094296
vt 0.0876493 -0.02811773
vt 0.08482408 -0.02710872
vt 0.08381507 -0.02993395
vt -0.08664029 -0.03094296
vt -0.08381508 -0.02993395
vt -0.08482408 -0.02710872
vt -0.0876493 -0.02811773
vt 0.2164513 0.1082257
vt 0.2245012 0.1122506
vt 0.2231596 0.1149339
vt 0.2151097 0.110909
vt -0.2164513 0.1082257
vt -0.2151097 0.110909
vt -0.2231596 0.1149339
vt -0.2245012 0.1122506
vt -0.2179643 0.1417058
vt -0.2155231 0.1434495
vt -0.2207543 0.1507732
vt -0.2231955 0.1490294
vt 0.2179643 0.1417058
vt 0.2231955 0.1490294
vt 0.2207543 0.1507732
vt 0.2155231 0.1434495
vt 0.08778384 -0.03666067
vt 0.08879285 -0.03383545
vt 0.08596762 -0.03282644
vt 0.08495862 -0.03565167
vt -0.08778384 -0.03666068
vt -0.08495862 -0.03565167
vt -0.08596763 -0.03282644
vt -0.08879285 -0.03383545
vt 0.2186874 0.1037536
vt 0.2267373 0.1077785
vt 0.2253956 0.1104618
vt 0.2173458 0.1064368
vt -0.2186874 0.1037536
vt -0.2173458 0.1064368
vt -0.2253956 0.1104618
vt -0.2267373 0.1077785
vt -0.2130819 0.1451933
vt -0.2106407 0.146937
vt -0.2158719 0.1542606
vt -0.2183131 0.1525169
vt 0.2130819 0.1451933
vt 0.2183131 0.1525169
vt 0.2158719 0.1542606
vt 0.2106407 0.146937
vt 0.08213338 -0.03464266
vt 0.08314239 -0.03181743
vt 0.08031717 -0.03080842
vt 0.07930816 -0.03363365
vt -0.08213338 -0.03464266
vt -0.07930816 -0.03363365
vt -0.08031717 -0.03080842
vt -0.08314239 -0.03181743
vt 0.2186874 0.1037536
vt 0.2267373 0.1077785
vt 0.2253956 0.1104618
vt 0.2173458 0.1064368
vt -0.2186874 0.1037536
vt -0.2173458 0.1064368
vt -0.2253956 0.1104618
vt -0.2267373 0.1077785
vt -0.2155231 0.1434495
vt -0.2130819 0.1451933
vt -0.2183131 0.1525169
vt -0.2207543 0.1507732
vt 0.2155231 0.1434495
vt 0.2207543 0.1507732
vt 0.2183131 0.1525169
vt 0.2130819 0.1451933
vt 0.0839496 -0.03847689
vt 0.08495861 -0.03565167
vt 0.08213339 -0.03464266
vt 0.08112438 -0.03746788
vt -0.0839496 -0.03847689
vt -0.08112438 -0.03746789
vt -0.08213339 -0.03464266
vt -0.08495861 -0.03565167
vt 0.220029 0.1010703
vt 0.2280789 0.1050952
vt 0.2267373 0.1077785
vt 0.2186874 0.1037536
vt -0.220029 0.1010703
vt -0.2186874 0.1037536
vt -0.2267373 0.1077785
vt -0.2280789 0.1050952
o group870911234
g mesh870911234
usemtl mat23
f 4/4/1 3/3/1 2/2/1 1/1/1
f 3/8/2 6/7/2 5/6/2 2/5/2
f 6/12/3 8/11/3 7/10/3 5/9/3
f 8/16/4 10/15/4 9/14/4 7/13/4
f 10/20/5 12/19/5 11/18/5 9/17/5
f 12/24/6 14/23/6 13/22/6 11/21/6
f 14/28/7 16/27/7 15/26/7 13/25/7
f 16/32/8 18/31/8 17/30/8 15/29/8
f 18/36/9 20/35/9 19/34/9 17/33/9
f 20/40/10 22/39/10 21/38/10 19/37/10
f 22/44/11 24/43/11 23/42/11 21/41/11
f 24/48/12 4/47/12 1/46/12 23/45/12
f 1/60/13 2/59/13 5/58/13 7/57/13 9/56/13 11/55/13 13/54/13 15/53/13 17/52/13 19/51/13 21/50/13 23/49/13
f 24/72/14 22/71/14 20/70/14 18/69/14 16/68/14 14/67/14 12/66/14 10/65/14 8/64/14 6/63/14 3/62/14 4/61/14
o group720497553
g mesh720497553
usemtl mat23
f 28/76/15 27/75/15 26/74/15 25/73/15
f 27/80/16 30/79/16 29/78/16 26/77/16
f 30/84/17 32/83/17 31/82/17 29/81/17
f 32/88/18 34/87/18 33/86/18 31/85/18
f 34/92/19 36/91/19 35/90/19 33/89/19
f 36/96/20 38/95/20 37/94/20 35/93/20
f 38/100/21 40/99/21 39/98/21 37/97/21
f 40/104/22 42/103/22 41/102/22 39/101/22
f 42/108/23 44/107/23 43/106/23 41/105/23
f 44/112/24 46/111/24 45/110/24 43/109/24
f 46/116/25 48/115/25 47/114/25 45/113/25
f 48/120/26 28/119/26 25/118/26 47/117/26
f 25/132/27 26/131/27 29/130/27 31/129/27 33/128/27 35/127/27 37/126/27 39/125/27 41/124/27 43/123/27 45/122/27 47/121/27
f 48/144/28 46/143/28 44/142/28 42/141/28 40/140/28 38/139/28 36/138/28 34/137/28 32/136/28 30/135/28 27/134/28 28/133/28
o group109348065
g mesh109348065
usemtl mat23
f 52/148/29 51/147/29 50/146/29 49/145/29
f 56/152/30 55/151/30 54/150/30 53/149/30
f 50/156/31 56/155/31 53/154/31 49/153/31
f 54/160/32 55/159/32 51/158/32 52/157/32
f 53/164/33 54/163/33 52/162/33 49/161/33
f 51/168/34 55/167/34 56/166/34 50/165/34
o group479011742
g mesh479011742
usemtl mat23
f 60/172/35 59/171/35 58/170/35 57/169/35
f 64/176/36 63/175/36 62/174/36 61/173/36
f 58/180/37 64/179/37 61/178/37 57/177/37
f 62/184/38 63/183/38 59/182/38 60/181/38
f 61/188/39 62/187/39 60/186/39 57/185/39
f 59/192/40 63/191/40 64/190/40 58/189/40
o group43897309
g mesh43897309
usemtl mat23
f 68/196/41 67/195/41 66/194/41 65/193/41
f 72/200/42 71/199/42 70/198/42 69/197/42
f 66/204/43 72/203/43 69/202/43 65/201/43
f 70/208/44 71/207/44 67/206/44 68/205/44
f 69/212/45 70/211/45 68/210/45 65/209/45
f 67/216/46 71/215/46 72/214/46 66/213/46
o group840136730
g mesh840136730
usemtl mat23
f 76/220/47 75/219/47 74/218/47 73/217/47
f 80/224/48 79/223/48 78/222/48 77/221/48
f 74/228/49 80/227/49 77/226/49 73/225/49
f 78/232/50 79/231/50 75/230/50 76/229/50
f 77/236/51 78/235/51 76/234/51 73/233/51
f 75/240/52 79/239/52 80/238/52 74/237/52
